<svg width="180" height="63" viewBox="0 0 180 63" fill="none" xmlns="http://www.w3.org/2000/svg">
<path d="M29.008 20.824V25.08H22.32V43H17.328V25.08H10.64V20.824H29.008ZM45.874 34.552C45.874 35.8747 45.682 37.0907 45.298 38.2C44.914 39.288 44.3593 40.2267 43.634 41.016C42.9087 41.784 42.034 42.3813 41.01 42.808C40.0073 43.2347 38.8767 43.448 37.618 43.448C36.3807 43.448 35.25 43.2347 34.226 42.808C33.2233 42.3813 32.3593 41.784 31.634 41.016C30.9087 40.2267 30.3433 39.288 29.938 38.2C29.5327 37.0907 29.33 35.8747 29.33 34.552C29.33 33.2293 29.5327 32.024 29.938 30.936C30.3647 29.848 30.9407 28.92 31.666 28.152C32.4127 27.384 33.2873 26.7867 34.29 26.36C35.314 25.9333 36.4233 25.72 37.618 25.72C38.834 25.72 39.9433 25.9333 40.946 26.36C41.97 26.7867 42.8447 27.384 43.57 28.152C44.2953 28.92 44.8607 29.848 45.266 30.936C45.6713 32.024 45.874 33.2293 45.874 34.552ZM41.01 34.552C41.01 33.08 40.7113 31.928 40.114 31.096C39.538 30.2427 38.706 29.816 37.618 29.816C36.53 29.816 35.6873 30.2427 35.09 31.096C34.4927 31.928 34.194 33.08 34.194 34.552C34.194 36.024 34.4927 37.1973 35.09 38.072C35.6873 38.9253 36.53 39.352 37.618 39.352C38.706 39.352 39.538 38.9253 40.114 38.072C40.7113 37.1973 41.01 36.024 41.01 34.552ZM55.5195 38.936C55.7542 38.9573 56.0208 38.9787 56.3195 39C56.6395 39 57.0128 39 57.4395 39C59.9355 39 61.7808 38.3707 62.9755 37.112C64.1915 35.8533 64.7995 34.1147 64.7995 31.896C64.7995 29.5707 64.2235 27.8107 63.0715 26.616C61.9195 25.4213 60.0955 24.824 57.5995 24.824C57.2582 24.824 56.9062 24.8347 56.5435 24.856C56.1808 24.856 55.8395 24.8773 55.5195 24.92V38.936ZM69.9515 31.896C69.9515 33.816 69.6528 35.4907 69.0555 36.92C68.4582 38.3493 67.6048 39.5333 66.4955 40.472C65.4075 41.4107 64.0742 42.1147 62.4955 42.584C60.9168 43.0533 59.1462 43.288 57.1835 43.288C56.2875 43.288 55.2422 43.2453 54.0475 43.16C52.8528 43.096 51.6795 42.9467 50.5275 42.712V21.112C51.6795 20.8987 52.8742 20.76 54.1115 20.696C55.3702 20.6107 56.4475 20.568 57.3435 20.568C59.2422 20.568 60.9595 20.7813 62.4955 21.208C64.0528 21.6347 65.3862 22.3067 66.4955 23.224C67.6048 24.1413 68.4582 25.3147 69.0555 26.744C69.6528 28.1733 69.9515 29.8907 69.9515 31.896ZM90.1852 34.552C90.1852 35.8747 89.9932 37.0907 89.6092 38.2C89.2252 39.288 88.6706 40.2267 87.9452 41.016C87.2199 41.784 86.3452 42.3813 85.3212 42.808C84.3186 43.2347 83.1879 43.448 81.9292 43.448C80.6919 43.448 79.5612 43.2347 78.5372 42.808C77.5346 42.3813 76.6706 41.784 75.9452 41.016C75.2199 40.2267 74.6546 39.288 74.2492 38.2C73.8439 37.0907 73.6412 35.8747 73.6412 34.552C73.6412 33.2293 73.8439 32.024 74.2492 30.936C74.6759 29.848 75.2519 28.92 75.9772 28.152C76.7239 27.384 77.5986 26.7867 78.6012 26.36C79.6252 25.9333 80.7346 25.72 81.9292 25.72C83.1452 25.72 84.2546 25.9333 85.2572 26.36C86.2812 26.7867 87.1559 27.384 87.8812 28.152C88.6066 28.92 89.1719 29.848 89.5772 30.936C89.9826 32.024 90.1852 33.2293 90.1852 34.552ZM85.3212 34.552C85.3212 33.08 85.0226 31.928 84.4252 31.096C83.8492 30.2427 83.0172 29.816 81.9292 29.816C80.8412 29.816 79.9986 30.2427 79.4012 31.096C78.8039 31.928 78.5052 33.08 78.5052 34.552C78.5052 36.024 78.8039 37.1973 79.4012 38.072C79.9986 38.9253 80.8412 39.352 81.9292 39.352C83.0172 39.352 83.8492 38.9253 84.4252 38.072C85.0226 37.1973 85.3212 36.024 85.3212 34.552ZM118.014 43C117.78 42.232 117.513 41.4427 117.214 40.632C116.937 39.8213 116.66 39.0107 116.382 38.2H107.742C107.465 39.0107 107.177 39.8213 106.878 40.632C106.601 41.4427 106.345 42.232 106.11 43H100.926C101.758 40.6107 102.548 38.4027 103.294 36.376C104.041 34.3493 104.766 32.44 105.47 30.648C106.196 28.856 106.9 27.16 107.582 25.56C108.286 23.9387 109.012 22.36 109.758 20.824H114.526C115.252 22.36 115.966 23.9387 116.67 25.56C117.374 27.16 118.078 28.856 118.782 30.648C119.508 32.44 120.244 34.3493 120.99 36.376C121.737 38.4027 122.526 40.6107 123.358 43H118.014ZM112.03 25.848C111.924 26.168 111.764 26.6053 111.55 27.16C111.337 27.7147 111.092 28.3547 110.814 29.08C110.537 29.8053 110.228 30.6053 109.886 31.48C109.566 32.3547 109.236 33.272 108.894 34.232H115.198C114.857 33.272 114.526 32.3547 114.206 31.48C113.886 30.6053 113.577 29.8053 113.278 29.08C113.001 28.3547 112.756 27.7147 112.542 27.16C112.329 26.6053 112.158 26.168 112.03 25.848ZM137.333 34.712C137.333 33.24 137.002 32.0667 136.341 31.192C135.679 30.296 134.698 29.848 133.397 29.848C132.97 29.848 132.575 29.8693 132.213 29.912C131.85 29.9333 131.551 29.9653 131.317 30.008V38.616C131.615 38.808 131.999 38.968 132.469 39.096C132.959 39.224 133.45 39.288 133.941 39.288C136.202 39.288 137.333 37.7627 137.333 34.712ZM142.197 34.584C142.197 35.8853 142.037 37.0693 141.717 38.136C141.397 39.2027 140.927 40.12 140.309 40.888C139.69 41.656 138.922 42.2533 138.005 42.68C137.087 43.1067 136.031 43.32 134.837 43.32C134.175 43.32 133.557 43.256 132.981 43.128C132.405 43 131.85 42.8187 131.317 42.584V48.92H126.549V26.744C126.975 26.616 127.466 26.4987 128.021 26.392C128.575 26.264 129.151 26.1573 129.749 26.072C130.367 25.9867 130.986 25.9227 131.605 25.88C132.245 25.816 132.853 25.784 133.429 25.784C134.815 25.784 136.053 25.9973 137.141 26.424C138.229 26.8293 139.146 27.416 139.893 28.184C140.639 28.9307 141.205 29.848 141.589 30.936C141.994 32.024 142.197 33.24 142.197 34.584ZM157.285 34.712C157.285 33.24 156.955 32.0667 156.293 31.192C155.632 30.296 154.651 29.848 153.349 29.848C152.923 29.848 152.528 29.8693 152.165 29.912C151.803 29.9333 151.504 29.9653 151.269 30.008V38.616C151.568 38.808 151.952 38.968 152.421 39.096C152.912 39.224 153.403 39.288 153.893 39.288C156.155 39.288 157.285 37.7627 157.285 34.712ZM162.149 34.584C162.149 35.8853 161.989 37.0693 161.669 38.136C161.349 39.2027 160.88 40.12 160.261 40.888C159.643 41.656 158.875 42.2533 157.957 42.68C157.04 43.1067 155.984 43.32 154.789 43.32C154.128 43.32 153.509 43.256 152.933 43.128C152.357 43 151.803 42.8187 151.269 42.584V48.92H146.501V26.744C146.928 26.616 147.419 26.4987 147.973 26.392C148.528 26.264 149.104 26.1573 149.701 26.072C150.32 25.9867 150.939 25.9227 151.557 25.88C152.197 25.816 152.805 25.784 153.381 25.784C154.768 25.784 156.005 25.9973 157.093 26.424C158.181 26.8293 159.099 27.416 159.845 28.184C160.592 28.9307 161.157 29.848 161.541 30.936C161.947 32.024 162.149 33.24 162.149 34.584Z" fill="white"/>
<rect x="3" y="6" width="168" height="51" rx="5" stroke="#F7F6F0" stroke-width="2"/>
<rect x="0.5" y="3.5" width="173" height="56" rx="7.5" stroke="#FFD900"/>
</svg>
